<?xml version="1.0"?>
<svg xmlns="http://www.w3.org/2000/svg" xmlns:xlink="http://www.w3.org/1999/xlink" version="1.1" id="Layer_1" x="0px" y="0px" viewBox="0 0 512 512" style="enable-background:new 0 0 512 512;" xml:space="preserve" width="512px" height="512px"><g><script xmlns=""/><g>
	<path style="fill:#454B54;" d="M406.528,151.552c-5.171,0-10.348-1.946-14.331-5.847c-8.079-7.91-8.212-20.879-0.307-28.959   l24.064-24.576c7.931-8.084,20.89-8.212,28.964-0.307c8.079,7.91,8.212,20.879,0.307,28.959l-24.064,24.576   C417.147,149.499,411.837,151.552,406.528,151.552z" data-original="#454B54"/>
	<path style="fill:#454B54;" d="M105.477,151.552c-5.315,0-10.624-2.053-14.633-6.154L66.78,120.822   c-7.916-8.079-7.777-21.048,0.307-28.959c8.09-7.916,21.053-7.772,28.959,0.307l24.064,24.576   c7.916,8.079,7.777,21.048-0.307,28.959C115.814,149.606,110.643,151.552,105.477,151.552z" data-original="#454B54"/>
	<path style="fill:#454B54;" d="M256,88.576c-11.31,0-20.48-9.17-20.48-20.48V20.48C235.52,9.17,244.69,0,256,0   c11.31,0,20.48,9.17,20.48,20.48v47.616C276.48,79.406,267.315,88.576,256,88.576z" data-original="#454B54"/>
</g><ellipse style="fill:#EAE6EC;" cx="256" cy="282.624" rx="212.992" ry="214.016" data-original="#EAE6EC"/><ellipse style="fill:#F7F7FB;" cx="256" cy="282.624" rx="165.888" ry="166.4" data-original="#F7F7FB"/><path style="fill:#454B54;" d="M256,464.384c-99.84,0-181.248-81.408-181.248-182.272c0-78.336,49.664-147.456,123.392-172.544  c8.192-2.56,16.896,1.536,19.456,9.728s-1.536,16.896-9.728,19.456c-61.44,20.48-102.4,78.336-102.4,143.36  c0,83.456,67.584,151.552,150.528,151.552c27.136,0,53.248-7.168,76.288-20.992c7.168-4.096,16.896-2.048,20.992,5.12  c4.096,7.168,2.048,16.896-5.12,20.992C320.512,455.68,288.256,464.384,256,464.384z" data-original="#454B54"/><path style="fill:#05F2C7" d="M256,115.712c91.648,0,165.888,74.752,165.888,166.912c0,46.08-18.432,87.552-48.64,117.76  L256,282.624V115.712z" data-original="#F48DA8" class="active-path" data-old_color="#F48DA8"/><ellipse style="fill:#EAE6EC;" cx="256" cy="282.624" rx="23.552" ry="24.064" data-original="#EAE6EC"/><g>
	<path style="fill:#454B54;" d="M256,512C130.048,512,27.648,409.088,27.648,282.112S130.048,52.224,256,52.224   s228.352,102.912,228.352,229.888S381.952,512,256,512z M256,83.456c-109.056,0-197.632,89.088-197.632,199.168   S146.944,481.792,256,481.792s197.632-89.088,197.632-199.168S365.056,83.456,256,83.456z" data-original="#454B54"/>
	<path style="fill:#454B54;" d="M373.248,415.744c-4.096,0-7.68-1.536-10.752-4.608c-6.144-6.144-6.144-15.872,0-21.504   c28.672-28.672,44.032-66.56,44.032-107.008c0-83.456-67.584-151.04-150.528-151.04c-8.704,0-15.36-6.656-15.36-15.36   s6.656-15.36,15.36-15.36c99.84,0,181.248,81.408,181.248,181.76c0,48.64-18.944,94.208-53.248,128.512   C380.928,414.208,377.344,415.744,373.248,415.744z" data-original="#454B54"/>
	<path style="fill:#454B54;" d="M256,273.92c-8.704,0-15.36-6.656-15.36-15.36v-95.232c0-8.704,6.656-15.36,15.36-15.36   s15.36,6.656,15.36,15.36v95.232C271.36,267.264,264.704,273.92,256,273.92z" data-original="#454B54"/>
	<path style="fill:#454B54;" d="M256,321.536c-21.504,0-38.912-17.408-38.912-38.912c0-21.504,17.408-39.424,38.912-39.424   s38.912,17.408,38.912,38.912C294.912,303.616,277.504,321.536,256,321.536z M256,273.92c-4.608,0-8.192,3.584-8.192,8.192   c0,4.608,3.584,8.192,8.192,8.192c4.608,0,8.192-3.584,8.192-8.192C264.192,277.504,260.608,273.92,256,273.92z" data-original="#454B54"/>
	<path style="fill:#454B54;" d="M373.248,415.744c-4.096,0-7.68-1.536-10.752-4.608l-33.28-33.792   c-6.144-6.144-6.144-15.872,0-21.504c6.144-6.144,15.872-6.144,21.504,0L384,389.632c6.144,6.144,6.144,15.872,0,21.504   C380.928,414.208,377.344,415.744,373.248,415.744z" data-original="#454B54"/>
	<path style="fill:#454B54;" d="M284.672,40.96h-57.344c-11.31,0-20.48-9.17-20.48-20.48S216.018,0,227.328,0h57.344   c11.31,0,20.48,9.17,20.48,20.48S295.982,40.96,284.672,40.96z" data-original="#454B54"/>
</g></g> </svg>
